<?xml version="1.0" encoding="utf-8"?>
<!-- Generator: Adobe Illustrator 23.0.3, SVG Export Plug-In . SVG Version: 6.00 Build 0)  -->
<svg version="1.1" id="Layer_1" xmlns="http://www.w3.org/2000/svg" xmlns:xlink="http://www.w3.org/1999/xlink" x="0px" y="0px"
	 viewBox="0 0 350 250" style="enable-background:new 0 0 350 250;" xml:space="preserve">
<style type="text/css">
	.st0{fill:#233D92;}
	.st1{fill:none;}
	.st2{fill:none;stroke:#233D92;stroke-width:16;stroke-miterlimit:10;}
	.st3{fill-rule:evenodd;clip-rule:evenodd;fill:#D4AF37;}
	.st4{fill-rule:evenodd;clip-rule:evenodd;fill:none;}
	.st5{fill:#7D661C;}
	.st6{font-family:'Georgia-Bold';}
	.st7{font-size:36px;}
	.st8{letter-spacing:1;}
</style>
<g>
	<g>
		<g>
			<g>
				<path class="st0" d="M191.57,77.02l-0.15-0.16c-4.38-4.61-4.06-11.99,0.76-16.16c17.68-15.3,35.48-29.41,57.18-37.64
					c34.26-12.99,74.81,5.75,90.06,40.85c15.84,36.46,1.02,79.28-33.92,97.5c-22.08,11.51-45.31,13.59-66.23-0.36
					c-23.31-15.53-44.83-33.82-66.69-51.45c-23.98-19.34-46.35-40.87-71.44-58.59C67.7,27.39,29.86,55.77,25.81,86.64
					c-2.69,20.49,4.17,37.44,20.83,49.68c15.98,11.74,33.66,14.51,50.97,3.76c14.71-9.13,28.68-19.47,42.7-29.47
					c4.29-3.06,10.12-2.72,14.03,0.82l0.43,0.39c4.92,4.46,4.87,12.23-0.1,16.67c-18.64,16.6-37.81,31.51-61.65,39.04
					c-30.8,9.73-66.41-7.11-82.82-37.87C-6.4,98.56,1.32,58.28,28.96,36.29c24.15-19.21,51.48-25.17,78.59-8.54
					c22.18,13.6,42.33,30.72,62.51,47.34c21.13,17.4,40.71,36.7,62.03,53.86c9.09,7.31,20.34,13.08,31.54,16.37
					c18.53,5.44,40.63-6.38,51.67-25.12c11.2-19,8.59-42.96-6.55-60.25c-14.32-16.36-36.19-22.96-54.28-13.09
					c-16.55,9.04-31.88,20.31-48.44,31.67C201.49,81.64,195.36,81.01,191.57,77.02z"/>
			</g>
		</g>
	</g>
	<path class="st1" d="M43.75,26c0,23.02,0,46.04,0,69.06c0,22.65,0,45.29,0,67.94"/>
	<path class="st2" d="M40.45,46c3.11,11.92,6.09,28.15,6.09,47.5c0,12.32-1.21,28.78-6.09,47.5"/>
	<path class="st2" d="M306.54,46c-3.11,11.92-6.09,28.15-6.09,47.5c0,12.32,1.21,28.78,6.09,47.5"/>
	<path class="st3" d="M127.69,84.82c-3.31-7.78-9.71-11.24-22.49-18.17c-9.16-4.96-16.17-8.65-25.95-8.65
		c-5.29,0-13.72-0.01-17.3,5.19c-3.89,5.64,2.64,10.59,3.46,26.82c0.26,5.22,0.13,15.35-1.73,26.82c-1.14,7.04-2.3,10.69,0,13.84
		c3.06,4.19,9.87,4.26,15.57,4.33c2.8,0.03,8.57,0.04,15.57-2.6c3.26-1.23,5.64-2.6,21.63-15.57c8.53-6.92,9.37-7.76,10.38-9.52
		C130.79,100.45,130.55,91.55,127.69,84.82z"/>
	<path class="st3" d="M219.86,108.18c3.31,7.78,9.71,11.24,22.49,18.17c9.16,4.96,16.17,8.65,25.95,8.65
		c5.29,0,13.72,0.01,17.3-5.19c3.89-5.64-2.64-10.59-3.46-26.82c-0.26-5.22-0.13-15.35,1.73-26.82c1.14-7.04,2.3-10.69,0-13.84
		c-3.06-4.19-9.87-4.26-15.57-4.33c-2.8-0.03-8.57-0.04-15.57,2.6c-3.26,1.23-5.64,2.6-21.63,15.57c-8.53,6.92-9.37,7.76-10.38,9.52
		C216.76,92.56,216.99,101.45,219.86,108.18z"/>
</g>
<rect x="15.52" y="196" class="st4" width="316.23" height="32"/>
<text transform="matrix(1 0 0 1 15.5177 223.2158)" class="st5 st6 st7 st8">Златни Мигове</text>
</svg>
